<svg xmlns="http://www.w3.org/2000/svg" width="24.025" height="24" viewBox="0 0 24.025 24">
  <g id="그룹_2875" data-name="그룹 2875" transform="translate(-1665.988 -265)">
    <g id="그룹_2697" data-name="그룹 2697" transform="translate(359.54 -761.75)">
      <path id="패스_2818" data-name="패스 2818" d="M1315,1026.75c.031.069.106.055.159.079a.936.936,0,0,1-.352,1.793c-.437.009-.875,0-1.312,0a4.748,4.748,0,0,0-3.447,1.429,5.3,5.3,0,0,0-1.536,2.388,4.649,4.649,0,0,0-.168,1.225q0,5.073,0,10.147a4.68,4.68,0,0,0,1.375,3.3,5.151,5.151,0,0,0,2.665,1.64,5.052,5.052,0,0,0,1.068.117q5.015,0,10.03,0a4.7,4.7,0,0,0,3.4-1.424,5.421,5.421,0,0,0,1.492-2.229,5.02,5.02,0,0,0,.218-1.592c-.005-.375,0-.75,0-1.125a.946.946,0,0,1,.757-.986.935.935,0,0,1,1.077.653c.007.019.027.032.042.048v1.641a.357.357,0,0,0,0,.281v.375a6.037,6.037,0,0,1-.435,1.806,6.5,6.5,0,0,1-1.121,1.8,7.793,7.793,0,0,1-2.489,2.021,5.169,5.169,0,0,1-2.22.584.092.092,0,0,0-.063.024H1324a.061.061,0,0,0-.094,0h-10.828a.061.061,0,0,0-.094,0h-.281a6.05,6.05,0,0,1-1.722-.4,6.388,6.388,0,0,1-1.98-1.229,8.366,8.366,0,0,1-1.8-2.172,5.812,5.812,0,0,1-.752-2.774q-.006-5.426,0-10.851a5.5,5.5,0,0,1,.91-3.034,7.65,7.65,0,0,1,4.108-3.317,6.832,6.832,0,0,1,1.284-.224h.188a.061.061,0,0,0,.094,0Z" transform="translate(0)"/>
      <path id="패스_2819" data-name="패스 2819" d="M1690.034,1300.781a.211.211,0,0,1,0-.281Z" transform="translate(-359.562 -256.641)" fill="#161616"/>
      <path id="패스_2820" data-name="패스 2820" d="M1410.433,1026.75c-.031.05-.063.063-.094,0Z" transform="translate(-97.398)" fill="#575757"/>
      <path id="패스_2821" data-name="패스 2821" d="M1411.089,1410.142c.031-.06.063-.048.094,0Z" transform="translate(-98.101 -359.392)" fill="#464646"/>
      <path id="패스_2822" data-name="패스 2822" d="M1585.839,1410.112c.031-.05.063-.063.094,0Z" transform="translate(-261.929 -359.362)" fill="#595959"/>
      <path id="패스_2823" data-name="패스 2823" d="M1436.3,1057.819a2.392,2.392,0,0,0-.646-.063c-1.437,0-2.874.005-4.311,0a.935.935,0,1,1-.052-1.869c1.577-.007,3.156-.04,4.732.01a3.71,3.71,0,0,1,3.566,3.712c.011,1.515,0,3.03,0,4.545a.938.938,0,1,1-1.873-.012c0-1.468,0-2.937,0-4.4a1.248,1.248,0,0,0-.068-.551c-.632.634-1.247,1.253-1.864,1.87q-4.622,4.623-9.243,9.246a1,1,0,0,1-.939.353.931.931,0,0,1-.564-1.492,2.442,2.442,0,0,1,.208-.222q5.442-5.443,10.885-10.883a1.5,1.5,0,0,1,.23-.158Z" transform="translate(-110.99 -27.299)"/>
    </g>
  </g>
</svg>
